<mxfile host="app.diagrams.net" agent="Mozilla/5.0 (Windows NT 10.0; Win64; x64) AppleWebKit/537.36 (KHTML, like Gecko) Chrome/133.0.0.0 Safari/537.36" version="26.0.11">
  <diagram name="Page-1" id="2YBvvXClWsGukQMizWep">
    <mxGraphModel grid="1" page="1" gridSize="10" guides="1" tooltips="1" connect="1" arrows="1" fold="1" pageScale="1" pageWidth="850" pageHeight="1100" math="0" shadow="0">
      <root>
        <mxCell id="0" />
        <mxCell id="1" parent="0" />
        <mxCell id="uysX26Skfw-6WkDNsZ6d-1" value=":SudokuGenerator" style="shape=umlLifeline;perimeter=lifelinePerimeter;whiteSpace=wrap;html=1;container=0;dropTarget=0;collapsible=0;recursiveResize=0;outlineConnect=0;portConstraint=eastwest;newEdgeStyle={&quot;edgeStyle&quot;:&quot;elbowEdgeStyle&quot;,&quot;elbow&quot;:&quot;vertical&quot;,&quot;curved&quot;:0,&quot;rounded&quot;:0};" vertex="1" parent="1">
          <mxGeometry x="200" y="60" width="110" height="350" as="geometry" />
        </mxCell>
        <mxCell id="uysX26Skfw-6WkDNsZ6d-2" value="" style="html=1;points=[];perimeter=orthogonalPerimeter;outlineConnect=0;targetShapes=umlLifeline;portConstraint=eastwest;newEdgeStyle={&quot;edgeStyle&quot;:&quot;elbowEdgeStyle&quot;,&quot;elbow&quot;:&quot;vertical&quot;,&quot;curved&quot;:0,&quot;rounded&quot;:0};" vertex="1" parent="uysX26Skfw-6WkDNsZ6d-1">
          <mxGeometry x="45" y="70" width="10" height="260" as="geometry" />
        </mxCell>
        <mxCell id="uysX26Skfw-6WkDNsZ6d-3" value="" style="html=1;points=[];perimeter=orthogonalPerimeter;outlineConnect=0;targetShapes=umlLifeline;portConstraint=eastwest;newEdgeStyle={&quot;edgeStyle&quot;:&quot;elbowEdgeStyle&quot;,&quot;elbow&quot;:&quot;vertical&quot;,&quot;curved&quot;:0,&quot;rounded&quot;:0};" vertex="1" parent="uysX26Skfw-6WkDNsZ6d-1">
          <mxGeometry x="50" y="160" width="10" height="80" as="geometry" />
        </mxCell>
        <mxCell id="uysX26Skfw-6WkDNsZ6d-4" style="edgeStyle=elbowEdgeStyle;rounded=0;orthogonalLoop=1;jettySize=auto;html=1;elbow=horizontal;curved=0;" edge="1" parent="uysX26Skfw-6WkDNsZ6d-1" source="uysX26Skfw-6WkDNsZ6d-2" target="uysX26Skfw-6WkDNsZ6d-2">
          <mxGeometry relative="1" as="geometry" />
        </mxCell>
        <mxCell id="uysX26Skfw-6WkDNsZ6d-5" style="edgeStyle=elbowEdgeStyle;rounded=0;orthogonalLoop=1;jettySize=auto;html=1;elbow=vertical;curved=0;" edge="1" parent="uysX26Skfw-6WkDNsZ6d-1" source="uysX26Skfw-6WkDNsZ6d-6" target="uysX26Skfw-6WkDNsZ6d-6">
          <mxGeometry relative="1" as="geometry">
            <mxPoint x="120" y="320" as="targetPoint" />
            <Array as="points">
              <mxPoint x="100" y="260" />
            </Array>
          </mxGeometry>
        </mxCell>
        <mxCell id="uysX26Skfw-6WkDNsZ6d-6" value="" style="html=1;points=[];perimeter=orthogonalPerimeter;outlineConnect=0;targetShapes=umlLifeline;portConstraint=eastwest;newEdgeStyle={&quot;edgeStyle&quot;:&quot;elbowEdgeStyle&quot;,&quot;elbow&quot;:&quot;vertical&quot;,&quot;curved&quot;:0,&quot;rounded&quot;:0};" vertex="1" parent="uysX26Skfw-6WkDNsZ6d-1">
          <mxGeometry x="50" y="260" width="10" height="30" as="geometry" />
        </mxCell>
        <mxCell id="uysX26Skfw-6WkDNsZ6d-7" value=":Grille" style="shape=umlLifeline;perimeter=lifelinePerimeter;whiteSpace=wrap;html=1;container=0;dropTarget=0;collapsible=0;recursiveResize=0;outlineConnect=0;portConstraint=eastwest;newEdgeStyle={&quot;edgeStyle&quot;:&quot;elbowEdgeStyle&quot;,&quot;elbow&quot;:&quot;vertical&quot;,&quot;curved&quot;:0,&quot;rounded&quot;:0};" vertex="1" parent="1">
          <mxGeometry x="380" y="60" width="100" height="270" as="geometry" />
        </mxCell>
        <mxCell id="uysX26Skfw-6WkDNsZ6d-8" value="" style="html=1;points=[];perimeter=orthogonalPerimeter;outlineConnect=0;targetShapes=umlLifeline;portConstraint=eastwest;newEdgeStyle={&quot;edgeStyle&quot;:&quot;elbowEdgeStyle&quot;,&quot;elbow&quot;:&quot;vertical&quot;,&quot;curved&quot;:0,&quot;rounded&quot;:0};" vertex="1" parent="uysX26Skfw-6WkDNsZ6d-7">
          <mxGeometry x="45" y="80" width="10" height="150" as="geometry" />
        </mxCell>
        <mxCell id="uysX26Skfw-6WkDNsZ6d-9" value="" style="shape=umlLifeline;perimeter=lifelinePerimeter;whiteSpace=wrap;html=1;container=1;dropTarget=0;collapsible=0;recursiveResize=0;outlineConnect=0;portConstraint=eastwest;newEdgeStyle={&quot;curved&quot;:0,&quot;rounded&quot;:0};participant=umlActor;" vertex="1" parent="1">
          <mxGeometry x="110" y="60" width="20" height="370" as="geometry" />
        </mxCell>
        <mxCell id="uysX26Skfw-6WkDNsZ6d-10" value="Demander une&lt;div&gt;nouvelle grille&amp;nbsp;&lt;/div&gt;" style="html=1;verticalAlign=bottom;endArrow=block;curved=0;rounded=0;" edge="1" parent="1">
          <mxGeometry x="0.0805" y="-30" width="80" relative="1" as="geometry">
            <mxPoint x="119.5" y="130" as="sourcePoint" />
            <mxPoint x="250" y="130" as="targetPoint" />
            <mxPoint as="offset" />
          </mxGeometry>
        </mxCell>
        <mxCell id="uysX26Skfw-6WkDNsZ6d-11" value="Utilisateur" style="text;html=1;align=center;verticalAlign=middle;resizable=0;points=[];autosize=1;strokeColor=none;fillColor=none;" vertex="1" parent="1">
          <mxGeometry x="80" y="90" width="80" height="30" as="geometry" />
        </mxCell>
        <mxCell id="uysX26Skfw-6WkDNsZ6d-12" value="genererGrilleComplete()" style="text;html=1;align=center;verticalAlign=middle;resizable=0;points=[];autosize=1;strokeColor=none;fillColor=none;" vertex="1" parent="1">
          <mxGeometry x="270" y="220" width="150" height="30" as="geometry" />
        </mxCell>
        <mxCell id="uysX26Skfw-6WkDNsZ6d-13" value="Créer grille complète" style="html=1;verticalAlign=bottom;endArrow=block;curved=0;rounded=0;" edge="1" parent="1">
          <mxGeometry width="80" relative="1" as="geometry">
            <mxPoint x="261.25" y="290" as="sourcePoint" />
            <mxPoint x="428.75" y="290" as="targetPoint" />
          </mxGeometry>
        </mxCell>
        <mxCell id="uysX26Skfw-6WkDNsZ6d-14" value="&lt;span style=&quot;color: rgb(0, 0, 0); font-family: Helvetica; font-size: 12px; font-style: normal; font-variant-ligatures: normal; font-variant-caps: normal; font-weight: 400; letter-spacing: normal; orphans: 2; text-align: center; text-indent: 0px; text-transform: none; widows: 2; word-spacing: 0px; -webkit-text-stroke-width: 0px; white-space: nowrap; background-color: rgb(251, 251, 251); text-decoration-thickness: initial; text-decoration-style: initial; text-decoration-color: initial; float: none; display: inline !important;&quot;&gt;genererGrille&lt;/span&gt;&lt;div&gt;&lt;span style=&quot;color: rgb(0, 0, 0); font-family: Helvetica; font-size: 12px; font-style: normal; font-variant-ligatures: normal; font-variant-caps: normal; font-weight: 400; letter-spacing: normal; orphans: 2; text-align: center; text-indent: 0px; text-transform: none; widows: 2; word-spacing: 0px; -webkit-text-stroke-width: 0px; white-space: nowrap; background-color: rgb(251, 251, 251); text-decoration-thickness: initial; text-decoration-style: initial; text-decoration-color: initial; float: none; display: inline !important;&quot;&gt;Incomplete&lt;/span&gt;&lt;span style=&quot;background-color: light-dark(rgb(251, 251, 251), rgb(21, 21, 21)); color: light-dark(rgb(0, 0, 0), rgb(237, 237, 237)); text-align: center; text-wrap-mode: nowrap;&quot;&gt;(niveau)&lt;/span&gt;&lt;/div&gt;" style="text;whiteSpace=wrap;html=1;" vertex="1" parent="1">
          <mxGeometry x="310" y="320" width="110" height="40" as="geometry" />
        </mxCell>
        <mxCell id="uysX26Skfw-6WkDNsZ6d-15" value="Retourne grille jouable" style="html=1;verticalAlign=bottom;endArrow=open;dashed=1;endSize=8;curved=0;rounded=0;" edge="1" parent="1">
          <mxGeometry relative="1" as="geometry">
            <mxPoint x="254.5" y="390" as="sourcePoint" />
            <mxPoint x="119.5" y="390" as="targetPoint" />
          </mxGeometry>
        </mxCell>
      </root>
    </mxGraphModel>
  </diagram>
</mxfile>
